<?xml version="1.0" standalone="no"?>
<!DOCTYPE svg PUBLIC "-//W3C//DTD SVG 20010904//EN"
 "http://www.w3.org/TR/2001/REC-SVG-20010904/DTD/svg10.dtd">
<svg version="1.0" xmlns="http://www.w3.org/2000/svg"
 width="500.000000pt" height="500.000000pt" viewBox="0 0 500.000000 500.000000"
 preserveAspectRatio="xMidYMid meet">

<g transform="translate(0.000000,500.000000) scale(0.100000,-0.100000)"
fill="#000000" stroke="none">
<path d="M1131 3898 c-59 -83 -57 -88 35 -88 l62 0 66 70 c37 39 64 75 61 80
-4 6 -44 10 -90 10 l-84 0 -50 -72z"/>
<path d="M470 3741 c-91 -28 -168 -99 -194 -180 -16 -48 -66 -419 -66 -487 0
-67 20 -117 64 -160 63 -64 164 -81 273 -49 97 29 187 138 195 236 l3 33 -60
8 c-33 5 -82 7 -109 6 -48 -3 -50 -4 -60 -42 -14 -49 -39 -67 -62 -45 -14 15
-13 34 11 234 29 235 30 241 51 249 27 11 43 -5 46 -47 l3 -42 108 2 c60 0
111 4 114 7 4 3 6 33 6 66 -1 104 -49 172 -145 206 -43 15 -136 17 -178 5z"/>
<path d="M2222 3731 c-72 -25 -122 -67 -156 -134 -25 -50 -33 -85 -59 -292
-27 -209 -29 -242 -17 -292 30 -136 188 -201 344 -143 95 36 165 123 182 227
l6 41 -83 7 c-126 10 -142 7 -150 -34 -10 -48 -31 -66 -59 -51 -18 10 -21 17
-16 48 3 20 15 114 26 207 24 205 26 212 48 224 28 15 47 -4 47 -46 l0 -38
109 2 c78 1 111 5 118 15 13 19 3 120 -17 162 -47 99 -192 142 -323 97z"/>
<path d="M3939 3734 c-64 -19 -141 -90 -169 -156 -33 -76 -84 -483 -70 -553
23 -113 106 -175 234 -175 86 0 160 28 215 82 69 68 80 103 113 369 29 227 29
240 14 292 -37 127 -184 189 -337 141z m105 -206 c12 -20 10 -50 -13 -237 -23
-180 -30 -215 -46 -227 -11 -8 -24 -13 -29 -11 -29 10 -30 39 -4 253 21 180
29 220 44 231 25 18 31 17 48 -9z"/>
<path d="M4516 3734 c-72 -23 -150 -104 -172 -179 -22 -78 -15 -160 20 -220
15 -24 63 -76 109 -116 45 -39 88 -79 95 -87 16 -21 15 -47 -3 -66 -25 -24
-45 -9 -45 35 l0 39 -114 0 -113 0 -7 -50 c-10 -72 8 -127 58 -176 47 -47 93
-64 178 -64 161 0 288 125 288 283 -1 81 -26 122 -139 226 -100 93 -119 121
-107 159 16 50 69 23 64 -32 l-3 -31 110 0 109 0 9 40 c11 54 -8 137 -40 176
-58 69 -191 97 -297 63z"/>
<path d="M1035 3728 c-43 -125 -275 -844 -275 -854 0 -11 23 -14 110 -14 l110
0 17 60 16 60 59 0 58 0 0 -44 c0 -77 -1 -76 120 -76 60 0 111 4 114 9 7 10
-61 848 -70 862 -9 15 -254 11 -259 -3z m90 -460 l7 -108 -37 0 c-26 0 -36 4
-32 13 2 6 15 56 27 109 13 54 25 96 26 95 1 -1 5 -50 9 -109z"/>
<path d="M1525 3728 c-6 -15 -105 -818 -105 -848 0 -20 6 -20 244 -20 l244 0
6 33 c3 17 8 62 12 100 l7 67 -126 0 c-69 0 -128 3 -130 8 -2 4 13 147 34 317
21 171 38 320 39 333 0 22 -2 22 -110 22 -79 0 -112 -4 -115 -12z"/>
<path d="M2646 3718 c-10 -48 -76 -615 -76 -648 0 -63 21 -114 64 -156 50 -51
105 -68 196 -62 76 6 134 32 184 84 67 69 76 102 117 423 21 163 38 315 39
339 l0 42 -109 0 c-96 0 -110 -2 -115 -17 -2 -10 -21 -157 -41 -328 -31 -258
-40 -313 -56 -330 -17 -18 -20 -18 -35 -4 -14 15 -12 42 20 311 20 162 36 311
36 331 l0 37 -110 0 c-106 0 -110 -1 -114 -22z"/>
<path d="M3239 3738 c-10 -40 -105 -865 -100 -871 4 -4 115 -6 247 -5 l239 3
10 80 c6 44 10 87 10 95 0 12 -22 15 -127 18 -114 2 -128 5 -128 20 0 9 16
145 35 302 19 157 35 302 35 322 l0 38 -110 0 c-60 0 -110 -1 -111 -2z"/>
<path d="M2156 2761 c-6 -9 -76 -558 -76 -592 0 -18 11 -19 164 -19 91 0 167
3 169 8 2 4 7 35 11 70 l7 62 -92 0 -91 0 6 31 c3 17 6 40 6 50 0 16 8 19 49
19 28 0 52 3 54 8 3 4 8 35 12 70 l7 62 -52 0 -53 0 7 38 c3 20 6 42 6 49 0 9
28 13 93 15 l92 3 6 60 c4 33 5 63 2 68 -6 10 -321 9 -327 -2z"/>
<path d="M2529 2768 c-6 -23 -75 -605 -72 -610 2 -5 37 -8 77 -8 l74 0 12 98
c6 53 17 140 24 192 l13 95 25 -53 26 -54 36 53 c35 52 36 53 36 24 0 -17 -9
-102 -20 -190 -11 -88 -20 -161 -20 -162 0 -2 34 -3 75 -3 52 0 77 4 80 13 10
26 75 589 69 598 -3 5 -36 9 -73 9 l-69 0 -43 -66 -43 -66 -30 63 -31 64 -72
3 c-40 2 -73 2 -74 0z"/>
<path d="M3271 2034 c-92 -25 -169 -98 -195 -186 -23 -76 -69 -471 -61 -518
10 -62 56 -124 111 -151 66 -32 186 -33 256 -2 62 28 123 93 146 156 24 64 76
476 68 530 -15 91 -76 156 -166 176 -59 14 -94 13 -159 -5z m93 -206 c13 -21
-30 -410 -51 -450 -15 -31 -44 -36 -64 -12 -10 13 -9 50 10 212 23 205 34 257
54 266 20 8 39 2 51 -16z"/>
<path d="M3873 2040 c-92 -19 -169 -85 -201 -171 -30 -82 -78 -501 -63 -555
16 -60 51 -106 101 -134 37 -20 59 -25 125 -25 68 0 89 4 137 28 91 45 158
142 158 229 l0 28 -85 2 c-47 1 -95 2 -107 2 -17 1 -24 -6 -29 -31 -9 -43 -27
-65 -53 -61 -15 2 -22 11 -24 33 -4 48 46 436 59 451 29 35 76 -1 63 -50 -7
-30 6 -33 131 -26 l90 5 3 50 c6 94 -32 166 -109 206 -45 23 -136 32 -196 19z"/>
<path d="M4457 2040 c-91 -23 -161 -81 -197 -163 -29 -65 -82 -483 -69 -548 4
-24 8 -47 9 -52 0 -4 19 -28 41 -52 109 -118 343 -89 433 53 36 58 44 93 71
307 34 277 32 321 -21 384 -50 60 -176 93 -267 71z m82 -212 c12 -31 -40 -440
-58 -461 -17 -21 -45 -22 -61 -2 -18 21 33 441 57 467 22 25 52 23 62 -4z"/>
<path d="M2575 2028 c-6 -15 -105 -820 -105 -849 0 -18 8 -19 104 -19 65 0
107 4 112 11 6 10 43 271 44 311 0 14 12 18 72 20 82 3 80 0 93 127 l7 71 -72
0 -73 0 7 62 c4 34 10 66 12 70 3 4 61 8 129 8 97 0 124 3 128 14 3 8 9 53 13
100 l7 86 -237 0 c-180 0 -238 -3 -241 -12z"/>
</g>
</svg>
